<svg width="2720" height="1024" viewBox="0 0 2720 1024" fill="none" xmlns="http://www.w3.org/2000/svg">
<g filter="url(#filter0_d_21_14)">
<path d="M1032.5 249.5H1063L804.5 793H774L1032.5 249.5Z" fill="#FC3858"/>
<path d="M1032.5 245.5H1029.97L1028.89 247.782L770.388 791.282L767.668 797H774H804.5H807.027L808.112 794.718L1066.61 251.218L1069.33 245.5H1063H1032.5Z" stroke="white" stroke-width="8"/>
</g>
<mask id="mask0_21_14" style="mask-type:alpha" maskUnits="userSpaceOnUse" x="677" y="249" width="360" height="544">
<path d="M677 249.5H1037L778.5 793H677V249.5Z" fill="#D9D9D9"/>
</mask>
<g mask="url(#mask0_21_14)">
<path d="M861.563 718H719.766V318H862.734C902.969 318 937.604 326.008 966.641 342.023C995.677 357.909 1018.01 380.76 1033.63 410.578C1049.39 440.396 1057.27 476.073 1057.27 517.609C1057.27 559.276 1049.39 595.083 1033.63 625.031C1018.01 654.979 995.547 677.961 966.25 693.977C937.083 709.992 902.188 718 861.563 718ZM804.336 645.539H858.047C883.047 645.539 904.076 641.112 921.133 632.258C938.32 623.273 951.211 609.406 959.805 590.656C968.529 571.776 972.891 547.427 972.891 517.609C972.891 488.052 968.529 463.898 959.805 445.148C951.211 426.398 938.385 412.596 921.328 403.742C904.271 394.888 883.242 390.461 858.242 390.461H804.336V645.539Z" fill="#191830"/>
</g>
<path d="M560.545 451.219C557.861 441.886 554.09 433.641 549.232 426.482C544.374 419.195 538.429 413.058 531.398 408.072C524.494 402.959 516.568 399.06 507.619 396.375C498.798 393.69 489.018 392.348 478.28 392.348C458.209 392.348 440.567 397.334 425.354 407.305C410.268 417.277 398.507 431.787 390.07 450.835C381.632 469.756 377.413 492.895 377.413 520.253C377.413 547.611 381.568 570.878 389.878 590.054C398.188 609.23 409.949 623.868 425.162 633.967C440.375 643.939 458.337 648.925 479.047 648.925C497.839 648.925 513.884 645.601 527.179 638.953C540.602 632.178 550.83 622.653 557.861 610.381C565.02 598.108 568.599 583.598 568.599 566.851L585.474 569.344H484.224V506.83H648.564V556.304C648.564 590.821 641.277 620.48 626.703 645.281C612.129 669.955 592.058 689.003 566.49 702.426C540.922 715.722 511.646 722.369 478.663 722.369C441.845 722.369 409.501 714.251 381.632 698.016C353.763 681.652 332.03 658.449 316.433 628.406C300.964 598.236 293.23 562.44 293.23 521.02C293.23 489.187 297.832 460.807 307.037 435.878C316.369 410.821 329.409 389.599 346.156 372.213C362.903 354.827 382.399 341.595 404.643 332.518C426.888 323.442 450.986 318.903 476.938 318.903C499.182 318.903 519.892 322.163 539.068 328.683C558.244 335.075 575.247 344.152 590.077 355.913C605.034 367.675 617.243 381.673 626.703 397.909C636.163 414.017 642.236 431.787 644.92 451.219H560.545Z" fill="#191830"/>
<path d="M1068.18 392.732V324.273H1390.72V392.732H1270.48V717H1188.41V392.732H1068.18Z" fill="#191830"/>
<path d="M1684.36 333.094C1683.67 330.674 1682.69 328.536 1681.43 326.68C1680.17 324.791 1678.63 323.2 1676.81 321.908C1675.02 320.582 1672.96 319.571 1670.64 318.875C1668.36 318.179 1665.82 317.831 1663.04 317.831C1657.83 317.831 1653.26 319.124 1649.31 321.709C1645.4 324.294 1642.35 328.056 1640.17 332.994C1637.98 337.9 1636.88 343.899 1636.88 350.991C1636.88 358.084 1637.96 364.116 1640.12 369.088C1642.27 374.06 1645.32 377.855 1649.26 380.473C1653.21 383.058 1657.87 384.351 1663.23 384.351C1668.11 384.351 1672.27 383.489 1675.71 381.766C1679.19 380.009 1681.84 377.54 1683.67 374.358C1685.52 371.176 1686.45 367.414 1686.45 363.072L1690.83 363.719H1664.58V347.511H1707.18V360.338C1707.18 369.287 1705.29 376.976 1701.52 383.406C1697.74 389.803 1692.53 394.741 1685.9 398.222C1679.28 401.669 1671.69 403.392 1663.13 403.392C1653.59 403.392 1645.2 401.287 1637.98 397.078C1630.75 392.836 1625.12 386.82 1621.08 379.031C1617.06 371.209 1615.06 361.929 1615.06 351.19C1615.06 342.937 1616.25 335.58 1618.64 329.116C1621.06 322.62 1624.44 317.118 1628.78 312.611C1633.12 308.103 1638.18 304.673 1643.94 302.32C1649.71 299.966 1655.96 298.79 1662.69 298.79C1668.45 298.79 1673.82 299.635 1678.8 301.325C1683.77 302.982 1688.18 305.336 1692.02 308.385C1695.9 311.434 1699.06 315.063 1701.52 319.273C1703.97 323.449 1705.54 328.056 1706.24 333.094H1684.36ZM1757.76 403.491C1749.9 403.491 1743.14 401.901 1737.47 398.719C1731.84 395.504 1727.5 390.963 1724.45 385.097C1721.4 379.197 1719.87 372.22 1719.87 364.166C1719.87 356.311 1721.4 349.417 1724.45 343.484C1727.5 337.552 1731.79 332.928 1737.32 329.614C1742.89 326.299 1749.42 324.642 1756.91 324.642C1761.95 324.642 1766.64 325.454 1770.98 327.078C1775.36 328.669 1779.17 331.072 1782.42 334.287C1785.7 337.502 1788.25 341.545 1790.07 346.418C1791.9 351.257 1792.81 356.924 1792.81 363.42V369.237H1728.32V356.112H1772.87C1772.87 353.063 1772.21 350.362 1770.88 348.009C1769.56 345.655 1767.72 343.816 1765.36 342.49C1763.04 341.131 1760.34 340.452 1757.26 340.452C1754.04 340.452 1751.19 341.197 1748.71 342.689C1746.26 344.147 1744.33 346.119 1742.94 348.605C1741.55 351.058 1740.84 353.792 1740.8 356.808V369.287C1740.8 373.065 1741.5 376.33 1742.89 379.081C1744.32 381.832 1746.32 383.953 1748.91 385.445C1751.49 386.936 1754.56 387.682 1758.1 387.682C1760.46 387.682 1762.61 387.35 1764.57 386.688C1766.52 386.025 1768.2 385.03 1769.59 383.705C1770.98 382.379 1772.04 380.755 1772.77 378.832L1792.36 380.125C1791.36 384.831 1789.33 388.941 1786.24 392.455C1783.19 395.935 1779.25 398.652 1774.41 400.608C1769.61 402.53 1764.05 403.491 1757.76 403.491ZM1841.13 403.491C1833.41 403.491 1826.73 401.851 1821.09 398.57C1815.49 395.255 1811.17 390.648 1808.12 384.749C1805.07 378.816 1803.55 371.938 1803.55 364.116C1803.55 356.228 1805.07 349.334 1808.12 343.435C1811.17 337.502 1815.49 332.895 1821.09 329.614C1826.73 326.299 1833.41 324.642 1841.13 324.642C1848.85 324.642 1855.51 326.299 1861.12 329.614C1866.75 332.895 1871.09 337.502 1874.14 343.435C1877.19 349.334 1878.72 356.228 1878.72 364.116C1878.72 371.938 1877.19 378.816 1874.14 384.749C1871.09 390.648 1866.75 395.255 1861.12 398.57C1855.51 401.851 1848.85 403.491 1841.13 403.491ZM1841.23 387.085C1844.74 387.085 1847.68 386.091 1850.03 384.102C1852.38 382.08 1854.16 379.33 1855.35 375.849C1856.58 372.369 1857.19 368.409 1857.19 363.967C1857.19 359.526 1856.58 355.565 1855.35 352.085C1854.16 348.605 1852.38 345.854 1850.03 343.832C1847.68 341.811 1844.74 340.8 1841.23 340.8C1837.68 340.8 1834.7 341.811 1832.28 343.832C1829.89 345.854 1828.09 348.605 1826.86 352.085C1825.67 355.565 1825.07 359.526 1825.07 363.967C1825.07 368.409 1825.67 372.369 1826.86 375.849C1828.09 379.33 1829.89 382.08 1832.28 384.102C1834.7 386.091 1837.68 387.085 1841.23 387.085ZM1892.49 402V325.636H1913.02V338.96H1913.81C1915.21 334.221 1917.54 330.641 1920.82 328.222C1924.11 325.769 1927.88 324.543 1932.16 324.543C1933.22 324.543 1934.36 324.609 1935.59 324.741C1936.82 324.874 1937.89 325.056 1938.82 325.288V344.081C1937.83 343.783 1936.45 343.518 1934.7 343.286C1932.94 343.054 1931.33 342.938 1929.87 342.938C1926.76 342.938 1923.97 343.617 1921.52 344.976C1919.1 346.302 1917.18 348.158 1915.75 350.544C1914.36 352.93 1913.67 355.681 1913.67 358.797V402H1892.49ZM1980.62 432.227C1973.76 432.227 1967.88 431.283 1962.97 429.393C1958.1 427.537 1954.22 425.002 1951.34 421.787C1948.45 418.572 1946.58 414.959 1945.72 410.949L1965.31 408.314C1965.9 409.839 1966.85 411.264 1968.14 412.589C1969.43 413.915 1971.14 414.976 1973.26 415.771C1975.42 416.6 1978.04 417.014 1981.12 417.014C1985.72 417.014 1989.52 415.887 1992.5 413.634C1995.52 411.413 1997.03 407.684 1997.03 402.447V388.477H1996.13C1995.2 390.598 1993.81 392.604 1991.96 394.493C1990.1 396.382 1987.71 397.923 1984.8 399.116C1981.88 400.31 1978.4 400.906 1974.36 400.906C1968.62 400.906 1963.4 399.58 1958.7 396.929C1954.02 394.244 1950.29 390.151 1947.51 384.649C1944.76 379.114 1943.38 372.121 1943.38 363.669C1943.38 355.018 1944.79 347.793 1947.61 341.993C1950.43 336.193 1954.17 331.851 1958.85 328.967C1963.55 326.084 1968.71 324.642 1974.31 324.642C1978.58 324.642 1982.16 325.371 1985.05 326.83C1987.93 328.255 1990.25 330.045 1992.01 332.199C1993.8 334.32 1995.17 336.408 1996.13 338.463H1996.93V325.636H2017.96V402.746C2017.96 409.242 2016.37 414.678 2013.18 419.053C2010 423.428 2005.59 426.709 1999.96 428.896C1994.36 431.117 1987.91 432.227 1980.62 432.227ZM1981.07 384.997C1984.48 384.997 1987.37 384.152 1989.72 382.462C1992.11 380.738 1993.93 378.286 1995.19 375.104C1996.48 371.889 1997.13 368.044 1997.13 363.57C1997.13 359.095 1996.5 355.217 1995.24 351.936C1993.98 348.622 1992.15 346.053 1989.77 344.23C1987.38 342.407 1984.48 341.496 1981.07 341.496C1977.59 341.496 1974.65 342.44 1972.27 344.33C1969.88 346.186 1968.08 348.771 1966.85 352.085C1965.62 355.4 1965.01 359.228 1965.01 363.57C1965.01 367.978 1965.62 371.789 1966.85 375.004C1968.11 378.186 1969.92 380.655 1972.27 382.412C1974.65 384.135 1977.59 384.997 1981.07 384.997ZM2069.61 403.491C2061.76 403.491 2055 401.901 2049.33 398.719C2043.69 395.504 2039.35 390.963 2036.3 385.097C2033.25 379.197 2031.73 372.22 2031.73 364.166C2031.73 356.311 2033.25 349.417 2036.3 343.484C2039.35 337.552 2043.64 332.928 2049.18 329.614C2054.75 326.299 2061.28 324.642 2068.77 324.642C2073.8 324.642 2078.49 325.454 2082.84 327.078C2087.21 328.669 2091.02 331.072 2094.27 334.287C2097.55 337.502 2100.1 341.545 2101.93 346.418C2103.75 351.257 2104.66 356.924 2104.66 363.42V369.237H2040.18V356.112H2084.73C2084.73 353.063 2084.06 350.362 2082.74 348.009C2081.41 345.655 2079.57 343.816 2077.22 342.49C2074.9 341.131 2072.2 340.452 2069.12 340.452C2065.9 340.452 2063.05 341.197 2060.56 342.689C2058.11 344.147 2056.19 346.119 2054.8 348.605C2053.4 351.058 2052.69 353.792 2052.66 356.808V369.287C2052.66 373.065 2053.36 376.33 2054.75 379.081C2056.17 381.832 2058.18 383.953 2060.76 385.445C2063.35 386.936 2066.41 387.682 2069.96 387.682C2072.31 387.682 2074.47 387.35 2076.42 386.688C2078.38 386.025 2080.05 385.03 2081.44 383.705C2082.84 382.379 2083.9 380.755 2084.63 378.832L2104.21 380.125C2103.22 384.831 2101.18 388.941 2098.1 392.455C2095.05 395.935 2091.11 398.652 2086.27 400.608C2081.46 402.53 2075.91 403.491 2069.61 403.491ZM2159.1 325.636V341.545H2113.11V325.636H2159.1ZM2123.55 307.341H2144.73V378.534C2144.73 380.49 2145.03 382.014 2145.63 383.108C2146.22 384.169 2147.05 384.914 2148.11 385.345C2149.21 385.776 2150.47 385.991 2151.89 385.991C2152.89 385.991 2153.88 385.909 2154.88 385.743C2155.87 385.544 2156.63 385.395 2157.16 385.295L2160.49 401.055C2159.43 401.387 2157.94 401.768 2156.02 402.199C2154.1 402.663 2151.76 402.945 2149.01 403.044C2143.9 403.243 2139.43 402.563 2135.59 401.006C2131.77 399.448 2128.81 397.028 2126.69 393.747C2124.56 390.466 2123.52 386.323 2123.55 381.318V307.341ZM2206.58 403.491C2198.86 403.491 2192.18 401.851 2186.54 398.57C2180.94 395.255 2176.62 390.648 2173.57 384.749C2170.52 378.816 2168.99 371.938 2168.99 364.116C2168.99 356.228 2170.52 349.334 2173.57 343.435C2176.62 337.502 2180.94 332.895 2186.54 329.614C2192.18 326.299 2198.86 324.642 2206.58 324.642C2214.3 324.642 2220.96 326.299 2226.57 329.614C2232.2 332.895 2236.54 337.502 2239.59 343.435C2242.64 349.334 2244.16 356.228 2244.16 364.116C2244.16 371.938 2242.64 378.816 2239.59 384.749C2236.54 390.648 2232.2 395.255 2226.57 398.57C2220.96 401.851 2214.3 403.491 2206.58 403.491ZM2206.68 387.085C2210.19 387.085 2213.13 386.091 2215.48 384.102C2217.83 382.08 2219.61 379.33 2220.8 375.849C2222.02 372.369 2222.64 368.409 2222.64 363.967C2222.64 359.526 2222.02 355.565 2220.8 352.085C2219.61 348.605 2217.83 345.854 2215.48 343.832C2213.13 341.811 2210.19 340.8 2206.68 340.8C2203.13 340.8 2200.15 341.811 2197.73 343.832C2195.34 345.854 2193.54 348.605 2192.31 352.085C2191.12 355.565 2190.52 359.526 2190.52 363.967C2190.52 368.409 2191.12 372.369 2192.31 375.849C2193.54 379.33 2195.34 382.08 2197.73 384.102C2200.15 386.091 2203.13 387.085 2206.68 387.085ZM2271.09 402L2250.3 325.636H2271.73L2283.56 376.943H2284.26L2296.59 325.636H2317.62L2330.15 376.645H2330.79L2342.43 325.636H2363.81L2343.07 402H2320.65L2307.53 353.974H2306.58L2293.46 402H2271.09ZM2396.28 357.852V402H2375.1V325.636H2395.29V339.109H2396.18C2397.87 334.668 2400.71 331.155 2404.69 328.57C2408.66 325.951 2413.48 324.642 2419.15 324.642C2424.46 324.642 2429.08 325.802 2433.02 328.122C2436.97 330.442 2440.03 333.757 2442.22 338.065C2444.41 342.341 2445.5 347.445 2445.5 353.378V402H2424.32V357.156C2424.36 352.483 2423.16 348.837 2420.74 346.219C2418.32 343.567 2414.99 342.241 2410.75 342.241C2407.9 342.241 2405.38 342.855 2403.19 344.081C2401.04 345.307 2399.35 347.097 2398.12 349.45C2396.93 351.77 2396.32 354.571 2396.28 357.852ZM1612.97 655.93V638.182H1696.59V655.93H1665.42V740H1644.14V655.93H1612.97ZM1733.69 741.491C1725.84 741.491 1719.08 739.901 1713.41 736.719C1707.78 733.504 1703.43 728.963 1700.38 723.097C1697.34 717.197 1695.81 710.22 1695.81 702.166C1695.81 694.311 1697.34 687.417 1700.38 681.484C1703.43 675.552 1707.73 670.928 1713.26 667.614C1718.83 664.299 1725.36 662.642 1732.85 662.642C1737.89 662.642 1742.58 663.454 1746.92 665.078C1751.29 666.669 1755.11 669.072 1758.35 672.287C1761.63 675.502 1764.19 679.545 1766.01 684.418C1767.83 689.257 1768.74 694.924 1768.74 701.42V707.237H1704.26V694.112H1748.81C1748.81 691.063 1748.15 688.362 1746.82 686.009C1745.49 683.655 1743.65 681.816 1741.3 680.49C1738.98 679.131 1736.28 678.452 1733.2 678.452C1729.98 678.452 1727.13 679.197 1724.65 680.689C1722.19 682.147 1720.27 684.119 1718.88 686.605C1717.49 689.058 1716.77 691.792 1716.74 694.808V707.287C1716.74 711.065 1717.44 714.33 1718.83 717.081C1720.25 719.832 1722.26 721.953 1724.84 723.445C1727.43 724.936 1730.5 725.682 1734.04 725.682C1736.4 725.682 1738.55 725.35 1740.51 724.688C1742.46 724.025 1744.13 723.03 1745.53 721.705C1746.92 720.379 1747.98 718.755 1748.71 716.832L1768.3 718.125C1767.3 722.831 1765.26 726.941 1762.18 730.455C1759.13 733.935 1755.19 736.652 1750.35 738.608C1745.54 740.53 1739.99 741.491 1733.69 741.491ZM1817.07 741.491C1809.25 741.491 1802.52 739.834 1796.88 736.52C1791.28 733.172 1786.97 728.532 1783.96 722.599C1780.97 716.667 1779.48 709.839 1779.48 702.116C1779.48 694.295 1780.99 687.434 1784.01 681.534C1787.06 675.601 1791.38 670.978 1796.98 667.663C1802.58 664.316 1809.25 662.642 1816.97 662.642C1823.63 662.642 1829.46 663.852 1834.47 666.271C1839.47 668.691 1843.43 672.088 1846.35 676.463C1849.27 680.838 1850.87 685.975 1851.17 691.875H1831.19C1830.62 688.063 1829.13 684.998 1826.71 682.678C1824.33 680.324 1821.19 679.148 1817.32 679.148C1814.04 679.148 1811.17 680.043 1808.72 681.832C1806.3 683.589 1804.41 686.158 1803.05 689.538C1801.69 692.919 1801.01 697.012 1801.01 701.818C1801.01 706.69 1801.67 710.833 1803 714.247C1804.36 717.661 1806.26 720.263 1808.72 722.053C1811.17 723.842 1814.04 724.737 1817.32 724.737C1819.74 724.737 1821.91 724.24 1823.83 723.246C1825.78 722.251 1827.39 720.81 1828.65 718.92C1829.94 716.998 1830.79 714.695 1831.19 712.01H1851.17C1850.84 717.843 1849.25 722.981 1846.4 727.422C1843.58 731.83 1839.69 735.277 1834.72 737.763C1829.75 740.249 1823.86 741.491 1817.07 741.491ZM1885.91 695.852V740H1864.73V638.182H1885.32V677.109H1886.21C1887.93 672.602 1890.72 669.072 1894.56 666.52C1898.41 663.935 1903.23 662.642 1909.03 662.642C1914.33 662.642 1918.96 663.802 1922.9 666.122C1926.88 668.409 1929.96 671.707 1932.15 676.016C1934.37 680.291 1935.46 685.412 1935.43 691.378V740H1914.25V695.156C1914.28 690.45 1913.09 686.787 1910.67 684.169C1908.28 681.551 1904.94 680.241 1900.63 680.241C1897.74 680.241 1895.19 680.855 1892.97 682.081C1890.78 683.307 1889.06 685.097 1887.8 687.45C1886.57 689.77 1885.95 692.571 1885.91 695.852Z" fill="#191830"/>
<path d="M1652.94 571H1616.85V469.182H1653.24C1663.48 469.182 1672.3 471.22 1679.69 475.297C1687.08 479.34 1692.77 485.157 1696.74 492.747C1700.75 500.337 1702.76 509.419 1702.76 519.991C1702.76 530.598 1700.75 539.712 1696.74 547.335C1692.77 554.958 1687.05 560.808 1679.59 564.885C1672.17 568.962 1663.28 571 1652.94 571ZM1638.38 552.555H1652.05C1658.41 552.555 1663.76 551.429 1668.11 549.175C1672.48 546.888 1675.76 543.358 1677.95 538.585C1680.17 533.779 1681.28 527.581 1681.28 519.991C1681.28 512.468 1680.17 506.32 1677.95 501.547C1675.76 496.774 1672.5 493.261 1668.16 491.007C1663.81 488.753 1658.46 487.626 1652.1 487.626H1638.38V552.555ZM1718.31 571V494.636H1739.49V571H1718.31ZM1728.95 484.793C1725.8 484.793 1723.1 483.749 1720.84 481.661C1718.62 479.539 1717.51 477.004 1717.51 474.054C1717.51 471.137 1718.62 468.635 1720.84 466.547C1723.1 464.426 1725.8 463.365 1728.95 463.365C1732.1 463.365 1734.78 464.426 1737 466.547C1739.25 468.635 1740.38 471.137 1740.38 474.054C1740.38 477.004 1739.25 479.539 1737 481.661C1734.78 483.749 1732.1 484.793 1728.95 484.793ZM1819.99 516.412L1800.6 517.605C1800.27 515.948 1799.56 514.456 1798.46 513.131C1797.37 511.772 1795.93 510.695 1794.14 509.899C1792.38 509.071 1790.28 508.656 1787.82 508.656C1784.54 508.656 1781.77 509.352 1779.52 510.744C1777.27 512.103 1776.14 513.926 1776.14 516.213C1776.14 518.036 1776.87 519.577 1778.33 520.837C1779.79 522.096 1782.29 523.107 1785.83 523.869L1799.65 526.653C1807.08 528.178 1812.61 530.631 1816.26 534.011C1819.91 537.392 1821.73 541.833 1821.73 547.335C1821.73 552.34 1820.25 556.732 1817.3 560.51C1814.39 564.288 1810.38 567.238 1805.27 569.359C1800.2 571.447 1794.35 572.491 1787.72 572.491C1777.61 572.491 1769.56 570.387 1763.56 566.178C1757.6 561.935 1754.1 556.168 1753.07 548.876L1773.9 547.783C1774.53 550.865 1776.06 553.218 1778.48 554.842C1780.9 556.433 1783.99 557.229 1787.77 557.229C1791.48 557.229 1794.47 556.516 1796.72 555.091C1799.01 553.633 1800.17 551.76 1800.2 549.473C1800.17 547.551 1799.36 545.976 1797.77 544.75C1796.17 543.491 1793.72 542.529 1790.41 541.866L1777.18 539.232C1769.73 537.74 1764.17 535.155 1760.53 531.476C1756.92 527.797 1755.11 523.107 1755.11 517.406C1755.11 512.501 1756.44 508.275 1759.09 504.729C1761.77 501.182 1765.53 498.448 1770.37 496.526C1775.24 494.603 1780.95 493.642 1787.47 493.642C1797.12 493.642 1804.71 495.68 1810.24 499.757C1815.81 503.834 1819.06 509.385 1819.99 516.412ZM1835.06 571V494.636H1855.6V507.96H1856.39C1857.79 503.221 1860.12 499.641 1863.4 497.222C1866.68 494.769 1870.46 493.543 1874.74 493.543C1875.8 493.543 1876.94 493.609 1878.17 493.741C1879.4 493.874 1880.47 494.056 1881.4 494.288V513.081C1880.41 512.783 1879.03 512.518 1877.27 512.286C1875.52 512.054 1873.91 511.938 1872.45 511.938C1869.34 511.938 1866.55 512.617 1864.1 513.976C1861.68 515.302 1859.76 517.158 1858.33 519.544C1856.94 521.93 1856.24 524.681 1856.24 527.797V571H1835.06ZM1941.32 538.486V494.636H1962.5V571H1942.17V557.129H1941.37C1939.65 561.604 1936.78 565.2 1932.77 567.918C1928.79 570.635 1923.94 571.994 1918.2 571.994C1913.1 571.994 1908.61 570.834 1904.73 568.514C1900.85 566.194 1897.82 562.896 1895.63 558.621C1893.48 554.345 1892.38 549.224 1892.35 543.259V494.636H1913.53V539.48C1913.56 543.988 1914.77 547.551 1917.16 550.169C1919.54 552.787 1922.74 554.097 1926.75 554.097C1929.31 554.097 1931.69 553.517 1933.91 552.357C1936.13 551.163 1937.92 549.407 1939.28 547.087C1940.67 544.767 1941.35 541.9 1941.32 538.486ZM1979.44 599.636V494.636H2000.32V507.463H2001.27C2002.19 505.408 2003.54 503.32 2005.29 501.199C2007.08 499.045 2009.4 497.255 2012.25 495.83C2015.14 494.371 2018.72 493.642 2022.99 493.642C2028.56 493.642 2033.7 495.1 2038.4 498.017C2043.11 500.901 2046.87 505.259 2049.69 511.092C2052.51 516.893 2053.91 524.168 2053.91 532.918C2053.91 541.436 2052.54 548.628 2049.79 554.494C2047.07 560.328 2043.36 564.752 2038.65 567.768C2033.98 570.751 2028.74 572.243 2022.94 572.243C2018.83 572.243 2015.33 571.563 2012.45 570.205C2009.6 568.846 2007.26 567.139 2005.44 565.084C2003.62 562.996 2002.23 560.891 2001.27 558.77H2000.62V599.636H1979.44ZM2000.17 532.818C2000.17 537.359 2000.8 541.32 2002.06 544.7C2003.32 548.081 2005.14 550.716 2007.53 552.605C2009.92 554.461 2012.82 555.389 2016.23 555.389C2019.68 555.389 2022.59 554.445 2024.98 552.555C2027.37 550.633 2029.17 547.982 2030.4 544.601C2031.66 541.187 2032.29 537.259 2032.29 532.818C2032.29 528.41 2031.67 524.532 2030.45 521.185C2029.22 517.837 2027.42 515.219 2025.03 513.33C2022.64 511.44 2019.71 510.496 2016.23 510.496C2012.78 510.496 2009.87 511.407 2007.48 513.23C2005.13 515.053 2003.32 517.638 2002.06 520.986C2000.8 524.333 2000.17 528.277 2000.17 532.818ZM2108.65 494.636V510.545H2062.66V494.636H2108.65ZM2073.1 476.341H2094.28V547.534C2094.28 549.49 2094.58 551.014 2095.18 552.108C2095.78 553.169 2096.6 553.914 2097.66 554.345C2098.76 554.776 2100.02 554.991 2101.44 554.991C2102.44 554.991 2103.43 554.909 2104.43 554.743C2105.42 554.544 2106.18 554.395 2106.71 554.295L2110.04 570.055C2108.98 570.387 2107.49 570.768 2105.57 571.199C2103.65 571.663 2101.31 571.945 2098.56 572.044C2093.46 572.243 2088.98 571.563 2085.14 570.006C2081.32 568.448 2078.36 566.028 2076.24 562.747C2074.12 559.466 2073.07 555.323 2073.1 550.318V476.341ZM2122.45 571V494.636H2143.63V571H2122.45ZM2133.09 484.793C2129.94 484.793 2127.24 483.749 2124.98 481.661C2122.76 479.539 2121.65 477.004 2121.65 474.054C2121.65 471.137 2122.76 468.635 2124.98 466.547C2127.24 464.426 2129.94 463.365 2133.09 463.365C2136.24 463.365 2138.92 464.426 2141.14 466.547C2143.39 468.635 2144.52 471.137 2144.52 474.054C2144.52 477.004 2143.39 479.539 2141.14 481.661C2138.92 483.749 2136.24 484.793 2133.09 484.793ZM2231.79 494.636L2205.09 571H2181.22L2154.53 494.636H2176.9L2192.76 549.274H2193.55L2209.36 494.636H2231.79ZM2274.96 572.491C2267.11 572.491 2260.35 570.901 2254.68 567.719C2249.05 564.504 2244.7 559.963 2241.65 554.097C2238.6 548.197 2237.08 541.22 2237.08 533.166C2237.08 525.311 2238.6 518.417 2241.65 512.484C2244.7 506.552 2249 501.928 2254.53 498.614C2260.1 495.299 2266.63 493.642 2274.12 493.642C2279.16 493.642 2283.85 494.454 2288.19 496.078C2292.56 497.669 2296.37 500.072 2299.62 503.287C2302.9 506.502 2305.46 510.545 2307.28 515.418C2309.1 520.257 2310.01 525.924 2310.01 532.42V538.237H2245.53V525.112H2290.08C2290.08 522.063 2289.41 519.362 2288.09 517.009C2286.76 514.655 2284.92 512.816 2282.57 511.49C2280.25 510.131 2277.55 509.452 2274.47 509.452C2271.25 509.452 2268.4 510.197 2265.92 511.689C2263.46 513.147 2261.54 515.119 2260.15 517.605C2258.76 520.058 2258.04 522.792 2258.01 525.808V538.287C2258.01 542.065 2258.71 545.33 2260.1 548.081C2261.52 550.832 2263.53 552.953 2266.11 554.445C2268.7 555.936 2271.77 556.682 2275.31 556.682C2277.67 556.682 2279.82 556.35 2281.77 555.688C2283.73 555.025 2285.4 554.03 2286.8 552.705C2288.19 551.379 2289.25 549.755 2289.98 547.832L2309.57 549.125C2308.57 553.831 2306.53 557.941 2303.45 561.455C2300.4 564.935 2296.46 567.652 2291.62 569.608C2286.81 571.53 2281.26 572.491 2274.96 572.491Z" fill="#FC3858"/>
<defs>
<filter id="filter0_d_21_14" x="751.336" y="231.5" width="334.328" height="579.5" filterUnits="userSpaceOnUse" color-interpolation-filters="sRGB">
<feFlood flood-opacity="0" result="BackgroundImageFix"/>
<feColorMatrix in="SourceAlpha" type="matrix" values="0 0 0 0 0 0 0 0 0 0 0 0 0 0 0 0 0 0 127 0" result="hardAlpha"/>
<feOffset/>
<feGaussianBlur stdDeviation="5"/>
<feComposite in2="hardAlpha" operator="out"/>
<feColorMatrix type="matrix" values="0 0 0 0 0.866667 0 0 0 0 0.866667 0 0 0 0 0.866667 0 0 0 1 0"/>
<feBlend mode="normal" in2="BackgroundImageFix" result="effect1_dropShadow_21_14"/>
<feBlend mode="normal" in="SourceGraphic" in2="effect1_dropShadow_21_14" result="shape"/>
</filter>
</defs>
</svg>
